<svg xmlns="http://www.w3.org/2000/svg" height="32" aria-hidden="true" viewBox="0 0 190 32"><defs><linearGradient id="a" x1="99.685%" x2="39.844%" y1="15.814%" y2="97.439%"><stop offset="0%" stop-color="#344563"/><stop offset="100%" stop-color="#7A869A"/></linearGradient></defs><g fill="#505F79"><path fill="url(#a)" d="M6.905 15.612a.665.665 0 0 0-1.126.121L.072 27.022a.669.669 0 0 0 .03.656c.124.2.344.32.58.32h7.946c.26.006.5-.14.61-.373 1.715-3.504.676-8.832-2.333-12.013Z"/><path fill="#7A869A" d="M11.086 5.337a14.754 14.754 0 0 0-.879 14.7l3.831 7.58a.683.683 0 0 0 .61.374h7.945a.684.684 0 0 0 .58-.32.669.669 0 0 0 .03-.657S12.515 5.862 12.246 5.333a.645.645 0 0 0-.581-.358.645.645 0 0 0-.579.362Z"/><path fill="inherit" d="M104.277 14.392c0 2.795 1.311 5.015 6.438 5.994 3.059.636 3.7 1.124 3.7 2.133 0 .98-.643 1.614-2.797 1.614a15.912 15.912 0 0 1-7.428-1.989v4.553c1.544.75 3.583 1.585 7.37 1.585 5.36 0 7.486-2.364 7.486-5.879m0 0c0-3.314-1.777-4.87-6.787-5.936-2.767-.605-3.437-1.21-3.437-2.075 0-1.094.99-1.556 2.825-1.556 2.214 0 4.399.663 6.467 1.585v-4.352a14.75 14.75 0 0 0-6.321-1.297c-4.952 0-7.516 2.133-7.516 5.62M173.13 9.07v18.934h4.078V13.566l1.719 3.832 5.767 10.606h5.127V9.07h-4.078v12.219l-1.544-3.545-4.632-8.674zM142.74 9.07h4.457v18.934h-4.457zM137.6 22.403c0-3.314-1.776-4.87-6.786-5.936-2.767-.605-3.437-1.21-3.437-2.075 0-1.094.99-1.556 2.825-1.556 2.214 0 4.399.663 6.467 1.585v-4.352a14.75 14.75 0 0 0-6.321-1.297c-4.952 0-7.516 2.133-7.516 5.62 0 2.795 1.311 5.015 6.438 5.994 3.059.636 3.7 1.124 3.7 2.133 0 .98-.643 1.614-2.797 1.614a15.912 15.912 0 0 1-7.428-1.989v4.553c1.544.75 3.583 1.585 7.37 1.585 5.36 0 7.486-2.364 7.486-5.879M69.66 9.07v18.934h9.16l1.443-4.092h-6.117V9.07zM51.555 9.07v4.092h4.952v14.842h4.486V13.162h5.301V9.07zM45.057 9.07H39.18l-6.674 18.934h5.096l.946-3.189c2.33.677 4.808.677 7.138 0l.946 3.189h5.098L45.057 9.07Zm-2.94 12.33c-.83 0-1.655-.117-2.452-.348l2.453-8.263 2.452 8.265a8.792 8.792 0 0 1-2.452.347ZM94.602 9.07h-5.878L82.05 28.004h5.097l.947-3.189c2.33.677 4.807.677 7.137 0l.946 3.189h5.098L94.602 9.07Zm-2.94 12.33c-.83 0-1.655-.117-2.452-.348l2.453-8.263 2.452 8.265a8.792 8.792 0 0 1-2.452.347ZM163.257 9.07h-5.878l-6.674 18.934h5.097l.947-3.189c2.33.677 4.807.677 7.137 0l.946 3.189h5.098L163.257 9.07Zm-2.941 12.33c-.83 0-1.656-.117-2.453-.348l2.453-8.263 2.453 8.265a8.792 8.792 0 0 1-2.453.347Z"/></g></svg>